# AST/ASF file generated using VICON BodyLanguage
# -----------------------------------------------
:version 1.10
:name VICON
:units
  mass 1.0
  length 0.45
  angle deg
:documentation
   .ast/.asf automatically generated from VICON data using
   VICON BodyBuilder and BodyLanguage model FoxedUp or BRILLIANT.MOD
:root
   order TX TY TZ RX RY RZ
   axis XYZ
   position 0 0 0  
   orientation 0 0 0 
:bonedata
  begin
     id 1 
     name lhipjoint
     direction 0.566809 -0.746272 0.349008 
     length 2.40479 
     axis 0 0 0  XYZ
  end
  begin
     id 2 
     name lfemur
     direction 0.34202 -0.939693 0  
     length 7.1578  
     axis 0 0 20  XYZ
    dof rx ry rz
    limits (-160.0 20.0)
           (-70.0 70.0)
           (-60.0 70.0)
  end
  begin
     id 3 
     name ltibia
     direction 0.34202 -0.939693 0   
     length 7.49137   
     axis 0 0 20   XYZ
    dof rx
    limits (-10.0 170.0)
  end
  begin
     id 4 
     name lfoot
     direction 0.0665746 -0.182912 0.980873   
     length 2.36784   
     axis -90 7.62852e-016 20   XYZ
    dof rx rz
    limits (-45.0 90.0)
           (-70.0 20.0)
  end
  begin
     id 5 
     name ltoes
     direction 1.53601e-011 -4.22058e-011 1   
     length 1.18966   
     axis -90 7.62852e-016 20   XYZ
    dof rx
    limits (-90.0 20.0)
  end
  begin
     id 6 
     name rhipjoint
     direction -0.550236 -0.756381 0.353735   
     length 2.37265  
     axis 0 0 0  XYZ 
  end
  begin
     id 7 
     name rfemur
     direction -0.34202 -0.939693 0   
     length 7.43386   
     axis 0 0 -20   XYZ
    dof rx ry rz
    limits (-160.0 20.0)
           (-70.0 70.0)
           (-70.0 60.0)
  end
  begin
     id 8 
     name rtibia
     direction -0.34202 -0.939693 0   
     length 7.50908   
     axis 0 0 -20   XYZ
    dof rx
    limits (-10.0 170.0)
 end
 begin
     id 9 
     name rfoot
     direction -0.0683029 -0.187661 0.979856   
     length 2.41173  
     axis -90 -7.62852e-016 -20   XYZ
    dof rx rz
    limits (-45.0 90.0)
           (-20.0 70.0)
  end
  begin
     id 10 
     name rtoes
     direction -1.53528e-011 -4.21968e-011 1   
     length 1.21082   
     axis -90 -7.62852e-016 -20   XYZ
    dof rx
    limits (-90.0 20.0)
  end
  begin
     id 11 
     name lowerback
     direction 0.013823 0.995423 -0.0945635   
     length 2.04495   
     axis 0 0 0   XYZ
    dof rx ry rz
    limits (-20.0 45.0)
           (-30.0 30.0)
           (-30.0 30.0)
  end
  begin
     id 12 
     name upperback
     direction 0.0276657 0.9994 -0.020853   
     length 2.05008   
     axis 0 0 0   XYZ
    dof rx ry rz
    limits (-20.0 45.0)
           (-30.0 30.0)
           (-30.0 30.0)
  end
  begin
     id 13 
     name thorax
     direction 0.019782 0.999531 0.0233827   
     length 2.06488   
     axis 0 0 0   XYZ
    dof rx ry rz
    limits (-20.0 45.0)
           (-30.0 30.0)
           (-30.0 30.0)
  end
  begin
     id 14 
     name lowerneck
     direction -0.0308541 0.994709 0.0979874   
     length 1.75553   
     axis 0 0 0   XYZ
    dof rx ry rz
    limits (-20.0 45.0)
           (-30.0 30.0)
           (-30.0 30.0)
  end
  begin
     id 15 
     name upperneck
     direction 0.0588398 0.995804 -0.0700903   
     length 1.76878   
     axis 0 0 0   XYZ
    dof rx ry rz
    limits (-20.0 45.0)
           (-30.0 30.0)
           (-30.0 30.0)
  end
  begin
     id 16
     name head
     direction 0.0209966 0.999159 -0.0352225  
     length 1.77193  
     axis 0 0 0   XYZ
    dof rx ry rz
    limits (-20.0 45.0)
           (-30.0 30.0)
           (-30.0 30.0)
  end
  begin
     id 17 
     name lclavicle
     direction 0.938182 0.335073 -0.0868338  
     length 3.58396  
     axis 0 0 0   XYZ
    dof ry rz
    limits (-20.0 10.0)
           (0.0 20.0)
  end
  begin
     id 18 
     name lhumerus
     direction 1 -4.48971e-011 -1.26313e-017   
     length 4.983   
     axis 180 -30 -90   XYZ
    dof rx ry rz
    limits (-60.0 90.0)
           (-90.0 90.0)
           (-90.0 90.0)
  end
  begin
     id 19
     name lradius
     direction 1 -4.48948e-011 -5.89033e-027   
     length 3.48356   
     axis 180 -30 -90   XYZ
    dof rx
    limits (-10.0 170.0)
  end
  begin
     id 20
     name lwrist
     direction 1 -4.48977e-011 -1.48983e-026   
     length 1.74178   
     axis 9.0955e-015 90 90   XYZ
    dof ry
    limits (-180.0 0.0)
 end
  begin
     id 21 
     name lhand
     direction 1 -4.49046e-011 -2.98066e-026   
     length 0.715259   
     axis 1.90115e-014 90 90   XYZ
    dof rx rz
    limits (-90.0 90.0)
           (-45.0 45.0)
  end
  begin
     id 22 
     name lfingers
     direction 1 -4.48907e-011 -5.95731e-026   
     length 0.576661   
     axis 3.80223e-014 90 90   XYZ
    dof rx
    limits (0.0 90.0)
  end
  begin
     id 23
     name lthumb
     direction 0.707107 -6.34963e-011 0.707107   
     length 0.827973   
     axis -90 45 -3.84942e-014   XYZ
    dof rx rz
    limits (-45.0 45.0)
           (-45.0 45.0)
  end
  begin
     id 24 
     name rclavicle
     direction -0.909637 0.398485 -0.11735   
     length 3.44819  
     axis 0 0 0   XYZ 
    dof ry rz
    limits (-10.0 20.0)
           (-20.0 0.0)
  end
  begin
     id 25 
     name rhumerus
     direction -1 -4.48978e-011 -1.09333e-027  
     length 5.2419   
     axis 180 30 90   XYZ
    dof rx ry rz
    limits (-90.0 60.0)
           (-90.0 90.0)
           (-90.0 90.0)
  end
  begin
     id 26 
     name rradius
     direction -1 -4.48953e-011 -7.61841e-027   
     length 3.44417   
     axis 180 30 90   XYZ
    dof rx
    limits (-10.0 170.0)
  end
  begin
     id 27 
     name rwrist
     direction -1 -4.48977e-011 -1.48983e-026   
     length 1.72209   
     axis 9.0955e-015 -90 -90   XYZ
    dof ry
    limits (-180.0 0.0)
  end
  begin
     id 28
     name rhand
     direction -1 -4.49027e-011 -2.98038e-026   
     length 0.622529   
     axis 1.90115e-014 -90 -90   XYZ
    dof rx rz
    limits (-90.0 90.0)
           (-45.0 45.0)
  end
  begin
     id 29
     name rfingers
     direction -1 -4.48838e-011 -5.95531e-026   
     length 0.501899   
     axis 3.80223e-014 -90 -90   XYZ
    dof rx
    limits (0.0 90.0)
  end
  begin
     id 30
     name rthumb
     direction -0.707107 -6.34937e-011 0.707107   
     length 0.720629   
     axis -90 -45 3.84942e-014   XYZ
    dof rx rz
    limits (-45.0 45.0)
           (-45.0 45.0)
  end
:hierarchy
  begin
    root lhipjoint rhipjoint lowerback
    lhipjoint lfemur
    lfemur ltibia
    ltibia lfoot
    lfoot ltoes
    rhipjoint rfemur
    rfemur rtibia
    rtibia rfoot
    rfoot rtoes
    lowerback upperback
    upperback thorax
    thorax lowerneck lclavicle rclavicle
    lowerneck upperneck
    upperneck head
    lclavicle lhumerus
    lhumerus lradius
    lradius lwrist
    lwrist lhand lthumb
    lhand lfingers
    rclavicle rhumerus
    rhumerus rradius
    rradius rwrist
    rwrist rhand rthumb
    rhand rfingers
  end

#!OML:ASF H:\Terrain\Patient Classification 1\PLAYGROUND\JustinFriday\JustinFriday.ASF
:FULLY-SPECIFIED
:DEGREES
408
root -27.3218 17.7875 -2.45479 175.349 33.2585 -189.733
lowerback 22.7149 -3.63685 -14.6125
upperback 2.91787 -7.78697 0.97615
thorax -7.20548 -3.17899 11.4709
lowerneck -4.41628 -8.5218 -8.81143
upperneck -0.836076 -11.0916 12.4053
head 1.68252 -5.36105 4.73407
rclavicle 5.48149e-014 -2.69353e-014
rhumerus 3.4133 -27.791 -56.7054
rradius 102.496
rwrist -31.7627
rhand -25.1363 -9.47848
rfingers 7.12502
rthumb 1.37992 -39.4538
lclavicle 5.48149e-014 -2.69353e-014
lhumerus 1.07598 -15.6368 80.2069
lradius 47.7593
lwrist -5.04707
lhand -23.0219 -14.2799
lfingers 7.12502
lthumb 3.42199 15.6723
rfemur -77.0331 -10.6521 18.5346
rtibia 104.64
rfoot -24.9296 -10.6503
rtoes 1.28387
lfemur 6.31171 17.7622 -33.8199
ltibia -1.90833e-014
lfoot -7.81755 4.33631
ltoes -0.977947
409
root -27.3204 17.8252 -2.44309 178.939 34.0405 -185.634
lowerback 22.0755 -4.23862 -11.853
upperback 2.51323 -7.81749 2.27471
thorax -7.50973 -3.25597 11.3634
lowerneck -3.40553 -8.06669 -10.5107
upperneck -1.21305 -10.4785 13.5262
head 1.50083 -5.08365 5.42637
rclavicle 3.8266e-015 2.48481e-015
rhumerus 4.80169 -27.4511 -57.9955
rradius 102.479
rwrist -30.9774
rhand -24.3996 -9.6682
rfingers 7.12502
rthumb 2.09145 -39.6377
lclavicle 3.8266e-015 2.48481e-015
lhumerus 1.49689 -17.8997 80.0647
lradius 48.1363
lwrist -6.53922
lhand -26.5539 -10.8419
lfingers 7.12502
lthumb 0.0107898 19.1378
rfemur -77.9242 -9.35913 23.4586
rtibia 102.93
rfoot -24.054 -13.6831
rtoes 2.08095
lfemur 4.67599 17.9025 -30.427
ltibia -4.77083e-015
lfoot -7.56701 4.49324
ltoes -1.11778
410
root -27.3195 17.8218 -2.4293 181.002 34.2542 -183.743
lowerback 22.1058 -4.6334 -11.1508
upperback 1.90964 -8.14825 3.41588
thorax -8.04068 -3.37148 12.4111
lowerneck -2.57539 -7.35665 -12.6288
upperneck -1.41528 -9.53692 14.5435
head 1.35192 -4.63899 6.17177
rclavicle 1.05853e-014 -5.56597e-014
rhumerus 4.91057 -25.2706 -56.9414
rradius 102.204
rwrist -31.39
rhand -25.1443 -9.19557
rfingers 7.12502
rthumb 1.37217 -39.1709
lclavicle 1.05853e-014 -5.56597e-014
lhumerus 1.87832 -18.1439 80.5898
lradius 48.7428
lwrist -5.38597
lhand -24.8688 -11.9014
lfingers 7.12502
lthumb 1.63826 18.072
rfemur -78.9303 -9.07642 26.1223
rtibia 101.524
rfoot -23.9651 -14.6953
rtoes 6.06558
lfemur 3.43049 17.7662 -28.9995
ltibia 1.11319e-014
lfoot -7.22906 4.68083
ltoes -1.07764
411
root -27.3059 17.813 -2.54467 179.184 33.9831 -185.964
lowerback 21.7499 -4.21628 -11.7276
upperback 2.89025 -7.67734 2.10678
thorax -6.9893 -3.24678 10.9918
lowerneck -4.68465 -8.75495 -9.0642
upperneck -1.84214 -11.2919 13.6002
head 1.54714 -5.4395 5.12872
rclavicle 5.98342e-014 4.67144e-015
rhumerus 3.93056 -27.7261 -56.7749
rradius 102.636
rwrist -31.5791
rhand -25.4528 -8.89111
rfingers 7.12502
rthumb 1.07429 -38.8681
lclavicle 5.98342e-014 4.67144e-015
lhumerus 5.06073 -22.8681 79.2856
lradius 48.8815
lwrist -5.43801
lhand -25.2663 -11.0682
lfingers 7.12502
lthumb 1.25436 18.9078
rfemur -78.1771 -10.0436 23.7995
rtibia 101.107
rfoot -24.7521 -14.9112
rtoes 10.5826
lfemur 4.53673 17.4213 -30.9129
ltibia -3.18055e-015
lfoot -7.70117 4.69899
ltoes -0.913915
412
root -27.2973 17.8268 -2.50484 182.493 34.3993 -183.236
lowerback 21.0117 -4.86609 -10.5918
upperback 2.17124 -8.18704 3.49496
thorax -7.21679 -3.50275 11.9995
lowerneck -3.9455 -8.07087 -11.7978
upperneck -1.68148 -10.3609 15.0551
head 1.60276 -4.98421 6.09324
rclavicle 9.14409e-014 -9.93923e-015
rhumerus 5.68491 -26.3821 -57.645
rradius 102.504
rwrist -31.6987
rhand -24.7184 -8.95459
rfingers 7.12502
rthumb 1.78356 -38.9269
lclavicle 9.14409e-014 -9.93923e-015
lhumerus 5.08925 -21.2794 80.1725
lradius 48.9743
lwrist -7.02757
lhand -26.8508 -10.6154
lfingers 7.12502
lthumb -0.275992 19.3641
rfemur -79.7433 -8.65018 27.3125
rtibia 99.7612
rfoot -23.2536 -18.3686
rtoes 9.49642
lfemur 2.41034 17.3927 -28.8131
ltibia -1.11319e-014
lfoot -7.24346 4.45967
ltoes -0.0936179
